#!OML:ASF E:\Steps\Project 1\Capture day 1\Session 2\Subject.ASF
:FULLY-SPECIFIED
:DEGREES
43
root -1.13346 17.9864 21.0126 -153.299 0.0169448 178.231
lowerback -25.7919 -3.29415 -5.91177
upperback 0.332205 -2.86339 0.118338
thorax 15.2305 -1.86085 2.40746
lowerneck -1.09899 1.55202 -3.00164
upperneck 12.7754 2.72307 1.28447
head 4.3394 1.50425 1.08946
rclavicle 2.18663e-015 4.77083e-015
rhumerus -40.5382 -12.5011 -82.6441
rradius 38.085
rwrist -6.31097
rhand -9.17146 -53.2351
rfingers 7.12502
rthumb 16.7814 -442.53
lclavicle 2.18663e-015 4.77083e-015
lhumerus -28.7063 0.857142 80.2374
lradius 28.0386
lwrist -1.89939
lhand -23.1366 -14.0169
lfingers 7.12502
lthumb 3.31119 15.9371
rfemur -27.3363 8.05556 19.1628
rtibia 10.0614
rfoot -17.872 -4.60643
rtoes -24.9208
lfemur -28.3659 -9.41363 -21.965
ltibia 13.1183
lfoot -9.10053 -0.803308
ltoes -33.7357
44
root -1.14009 17.9886 21.0102 -153.321 0.0042609 178.22
lowerback -25.7164 -3.31415 -5.97151
upperback 0.287681 -2.88678 0.16002
thorax 15.1419 -1.87698 2.48484
lowerneck -1.05759 1.57113 -3.08028
upperneck 12.8578 2.75196 1.38045
head 4.35863 1.52264 1.13779
rclavicle -1.799e-014 7.55382e-015
rhumerus -40.6073 -12.4787 -82.5087
rradius 38.0169
rwrist -6.34401
rhand -9.19844 -53.1262
rfingers 7.12502
rthumb 16.7554 -442.423
lclavicle -1.799e-014 7.55382e-015
lhumerus -28.745 0.954819 80.2722
lradius 27.9443
lwrist -1.83586
lhand -23.0372 -14.0426
lfingers 7.12502
lthumb 3.40714 15.9099
rfemur -27.2601 8.12983 19.0799
rtibia 9.98715
rfoot -17.9368 -4.6455
rtoes -25.3048
lfemur -28.3023 -9.47251 -21.9935
ltibia 13.0762
lfoot -9.11892 -0.723265
ltoes -34.4043
45
root -1.14394 17.9897 21.0094 -153.342 0.0119305 178.299
lowerback -25.903 -3.23576 -5.79779
upperback 0.393503 -2.7973 0.0420243
thorax 15.3508 -1.82003 2.2737
lowerneck -0.998263 1.5357 -2.9044
upperneck 12.7895 2.67602 1.48822
head 4.32406 1.49729 1.1376
rclavicle 2.3059e-014 1.39149e-014
rhumerus -40.4745 -12.7448 -82.6342
rradius 37.9171
rwrist -6.25524
rhand -9.07933 -53.6184
rfingers 7.12502
rthumb 16.8701 -442.906
lclavicle 2.3059e-014 1.39149e-014
lhumerus -28.6385 0.585647 80.1579
lradius 27.9891
lwrist -1.60299
lhand -23.0004 -13.9307
lfingers 7.12502
lthumb 3.44267 16.0213
rfemur -27.2043 8.17581 19.1299
rtibia 9.94481
rfoot -18.0007 -4.60101
rtoes -24.8476
lfemur -28.2606 -9.4628 -21.9041
ltibia 13.009
lfoot -9.00192 -0.683848
ltoes -34.5599
46
root -1.14829 17.9914 21.0108 -153.309 0.0155469 178.462
lowerback -25.8288 -3.16064 -5.69097
upperback 0.344393 -2.74483 0.0824821
thorax 15.2407 -1.78887 2.28433
lowerneck -1.02392 1.48965 -2.93632
upperneck 12.9248 2.61507 1.60856
head 4.37841 1.47492 1.18488
rclavicle 4.68138e-014 -4.37326e-015
rhumerus -40.562 -12.8232 -82.5442
rradius 37.9158
rwrist -6.20935
rhand -9.04411 -53.6774
rfingers 7.12502
rthumb 16.904 -442.962
lclavicle 4.68138e-014 -4.37326e-015
lhumerus -28.7072 0.499571 80.1989
lradius 27.9941
lwrist -1.60373
lhand -22.9107 -13.8948
lfingers 7.12502
lthumb 3.52934 16.0558
rfemur -27.3027 8.33456 19.2708
rtibia 10.0278
rfoot -18.0068 -4.71011
rtoes -24.8684
lfemur -28.3197 -9.37164 -21.7243
ltibia 12.9991
lfoot -8.91997 -0.711472
ltoes -33.8987
47
root -1.15311 17.993 21.0123 -153.284 0.0101822 178.527
lowerback -25.652 -3.15478 -5.71232
upperback 0.266639 -2.75839 0.15609
thorax 15.0531 -1.79767 2.38501
lowerneck -1.05963 1.49744 -3.0025
upperneck 13.0355 2.63658 1.63961
head 4.42456 1.48665 1.21097
rclavicle 1.40143e-014 -2.78299e-015
rhumerus -40.673 -12.8724 -82.3821
rradius 37.9211
rwrist -6.08236
rhand -8.98424 -53.5066
rfingers 7.12502
rthumb 16.9616 -442.786
lclavicle 1.40143e-014 -2.78299e-015
lhumerus -28.7755 0.681919 80.254
lradius 27.9122
lwrist -1.75735
lhand -22.8073 -13.8841
lfingers 7.12502
lthumb 3.62918 16.0647
rfemur -27.3965 8.58322 19.2634
rtibia 10.1427
rfoot -18.0521 -4.97144
rtoes -24.9797
lfemur -28.3815 -9.19427 -21.7071
ltibia 13.0479
lfoot -8.92192 -0.865113
ltoes -33.6837
48
root -1.16032 17.9921 21.0113 -153.273 0.0418024 178.45
lowerback -25.6677 -3.18297 -5.7914
upperback 0.293078 -2.76756 0.153345
thorax 15.099 -1.80813 2.42242
lowerneck -1.12834 1.54386 -3.08233
upperneck 13.0832 2.70196 1.68509
head 4.45265 1.51721 1.24535
rclavicle 8.94531e-015 6.75868e-015
rhumerus -40.6284 -12.9237 -82.3253
rradius 37.9237
rwrist -6.02928
rhand -8.96022 -53.5811
rfingers 7.12502
rthumb 16.9847 -442.859
lclavicle 8.94531e-015 6.75868e-015
lhumerus -28.7194 0.859629 80.292
lradius 27.8425
lwrist -1.88287
lhand -22.9656 -13.8461
lfingers 7.12502
lthumb 3.47632 16.1053
rfemur -27.3742 8.60071 19.1247
rtibia 10.1105
rfoot -18.0308 -5.01623
rtoes -24.5825
lfemur -28.3901 -9.11925 -21.8695
ltibia 13.0568
lfoot -8.95309 -0.968637
ltoes -33.7049
49
root -1.16783 17.9946 21.0134 -153.322 0.0283546 178.386
lowerback -25.7812 -3.20992 -5.83204
upperback 0.43865 -2.76307 0.131073
thorax 15.3406 -1.80953 2.41472
lowerneck -1.14041 1.59322 -3.09667
upperneck 12.877 2.75453 1.62668
head 4.37864 1.53316 1.2258
rclavicle -3.19049e-014 -1.51076e-014
rhumerus -40.3665 -12.9232 -82.3821
rradius 37.8762
rwrist -6.1207
rhand -9.19439 -53.5954
rfingers 7.12502
rthumb 16.7593 -442.892
lclavicle -3.19049e-014 -1.51076e-014
lhumerus -28.4398 1.00173 80.3246
lradius 27.7323
lwrist -1.98504
lhand -23.0566 -13.6399
lfingers 7.12502
lthumb 3.38841 16.3129
rfemur -27.2425 8.39398 19.0822
rtibia 9.94514
rfoot -17.9027 -4.86726
rtoes -24.361
lfemur -28.3409 -9.16154 -21.9732
ltibia 13.0382
lfoot -8.95148 -1.03974
ltoes -32.8878
50
root -1.17134 17.9986 21.0164 -153.367 -0.0435538 178.426
lowerback -25.499 -3.22074 -5.80626
upperback 0.353335 -2.81261 0.148282
thorax 15.0816 -1.82633 2.41249
lowerneck -1.13356 1.59463 -3.12166
upperneck 12.9453 2.75683 1.69742
head 4.40112 1.53862 1.25562
rclavicle 1.07344e-014 -1.19271e-015
rhumerus -40.444 -12.8872 -82.3453
rradius 37.8182
rwrist -6.11827
rhand -9.24743 -53.489
rfingers 7.12502
rthumb 16.7082 -442.79
lclavicle 1.07344e-014 -1.19271e-015
lhumerus -28.541 1.00618 80.3224
lradius 27.6561
lwrist -2.02512
lhand -23.0183 -13.3666
lfingers 7.12502
lthumb 3.42545 16.5857
rfemur -27.1353 8.26777 19.1717
rtibia 9.81879
rfoot -17.8228 -4.77243
rtoes -24.2225
lfemur -28.3156 -9.09695 -21.9466
ltibia 13.0801
lfoot -8.89462 -1.17063
ltoes -33.0202
51
root -1.17618 17.9985 21.0112 -153.392 -0.000811723 178.511
lowerback -25.3392 -3.22057 -5.75892
upperback 0.26092 -2.85254 0.197323
thorax 14.8837 -1.84064 2.43464
lowerneck -1.1049 1.56644 -3.16232
upperneck 13.0343 2.72692 1.72415
head 4.42825 1.52628 1.27218
rclavicle -1.3418e-014 -9.54166e-015
rhumerus -40.5915 -12.7699 -82.2579
rradius 37.7951
rwrist -6.09726
rhand -9.15011 -53.3675
rfingers 7.12502
rthumb 16.8019 -442.661
lclavicle -1.3418e-014 -9.54166e-015
lhumerus -28.7545 0.98038 80.3447
lradius 27.6547
lwrist -1.97471
lhand -22.9735 -13.2324
lfingers 7.12502
lthumb 3.4687 16.7192
rfemur -27.0585 8.27939 19.2519
rtibia 9.73221
rfoot -17.8309 -4.68871
rtoes -24.3135
lfemur -28.2337 -8.99431 -21.9014
ltibia 13.0303
lfoot -8.87511 -1.16151
ltoes -33.9182
52
root -1.18288 17.9985 21.0064 -153.443 0.10416 178.48
lowerback -25.1857 -3.21524 -5.80854
upperback 0.186732 -2.84832 0.193683
thorax 14.7096 -1.84061 2.46731
lowerneck -1.09139 1.56496 -3.20996
upperneck 13.1409 2.73428 1.76345
head 4.46358 1.53301 1.29641
rclavicle 2.5345e-014 3.97569e-016
rhumerus -40.7647 -12.6152 -82.2006
rradius 37.8114
rwrist -6.15972
rhand -9.21072 -53.348
rfingers 7.12502
rthumb 16.7436 -442.646
lclavicle 2.5345e-014 3.97569e-016
lhumerus -29.0197 0.846666 80.3929
lradius 27.7744
lwrist -1.80263
lhand -22.9587 -13.182
lfingers 7.12502
lthumb 3.483 16.7693
rfemur -26.9664 8.44271 19.1338
rtibia 9.67952
rfoot -17.9024 -4.74499
rtoes -24.4386
lfemur -28.0998 -8.9637 -22.0022
ltibia 12.9086
lfoot -8.90879 -1.13461
ltoes -33.59
53
root -1.19011 17.9954 21.0085 -153.282 0.00628328 178.398
lowerback -25.0853 -3.24229 -5.83731
upperback 0.00750608 -2.90277 0.171342
thorax 14.443 -1.86581 2.44406
lowerneck -1.10768 1.57072 -3.15696
upperneck 13.2613 2.75557 1.7367
head 4.51125 1.54851 1.28183
rclavicle 2.78299e-015 -7.95139e-016
rhumerus -41.0025 -12.6356 -82.1106
rradius 37.8422
rwrist -6.07882
rhand -9.33066 -53.2714
rfingers 7.12502
rthumb 16.6281 -442.579
lclavicle 2.78299e-015 -7.95139e-016
lhumerus -29.3683 0.656425 80.447
lradius 27.952
lwrist -1.71206
lhand -23.012 -13.2063
lfingers 7.12502
lthumb 3.43149 16.7458
rfemur -27.1502 8.61777 18.9029
rtibia 9.69291
rfoot -17.8951 -5.06436
rtoes -24.241
lfemur -28.3475 -9.14648 -22.044
ltibia 12.988
lfoot -8.9211 -1.11811
ltoes -33.3814
